<mxfile host="app.diagrams.net" agent="Mozilla/5.0 (Windows NT 10.0; Win64; x64) AppleWebKit/537.36 (KHTML, like Gecko) Chrome/128.0.0.0 Safari/537.36 Edg/128.0.0.0" version="24.7.13">
  <diagram name="Page-1" id="kdZGI_m3e6Z1d-hyXX-w">
    <mxGraphModel dx="2497" dy="942" grid="1" gridSize="10" guides="1" tooltips="1" connect="1" arrows="1" fold="1" page="1" pageScale="1" pageWidth="827" pageHeight="1169" math="0" shadow="0">
      <root>
        <mxCell id="0" />
        <mxCell id="1" parent="0" />
        <mxCell id="vC_pauE58aYi4fVgcCe0-69" style="edgeStyle=orthogonalEdgeStyle;rounded=0;orthogonalLoop=1;jettySize=auto;html=1;exitX=0.29;exitY=0.91;exitDx=0;exitDy=0;exitPerimeter=0;dashed=1;dashPattern=12 12;" edge="1" parent="1" source="vC_pauE58aYi4fVgcCe0-16" target="vC_pauE58aYi4fVgcCe0-29">
          <mxGeometry relative="1" as="geometry" />
        </mxCell>
        <mxCell id="vC_pauE58aYi4fVgcCe0-70" style="edgeStyle=orthogonalEdgeStyle;rounded=0;orthogonalLoop=1;jettySize=auto;html=1;exitX=0.71;exitY=0.91;exitDx=0;exitDy=0;exitPerimeter=0;dashed=1;dashPattern=12 12;" edge="1" parent="1" source="vC_pauE58aYi4fVgcCe0-16">
          <mxGeometry relative="1" as="geometry">
            <mxPoint x="640" y="270" as="targetPoint" />
          </mxGeometry>
        </mxCell>
        <mxCell id="vC_pauE58aYi4fVgcCe0-16" value="" style="outlineConnect=0;dashed=0;verticalLabelPosition=bottom;verticalAlign=top;align=center;html=1;shape=mxgraph.aws3.route_53;fillColor=#F58536;gradientColor=none;" vertex="1" parent="1">
          <mxGeometry x="300" y="80" width="70.5" height="85.5" as="geometry" />
        </mxCell>
        <mxCell id="vC_pauE58aYi4fVgcCe0-26" value="&lt;font style=&quot;font-size: 14px;&quot;&gt;Mumbai&amp;nbsp;Region (ap-south-1)&lt;/font&gt;" style="points=[[0,0],[0.25,0],[0.5,0],[0.75,0],[1,0],[1,0.25],[1,0.5],[1,0.75],[1,1],[0.75,1],[0.5,1],[0.25,1],[0,1],[0,0.75],[0,0.5],[0,0.25]];outlineConnect=0;gradientColor=none;html=1;whiteSpace=wrap;fontSize=12;fontStyle=0;container=1;pointerEvents=0;collapsible=0;recursiveResize=0;shape=mxgraph.aws4.group;grIcon=mxgraph.aws4.group_region;strokeColor=#00A4A6;fillColor=none;verticalAlign=top;align=left;spacingLeft=30;fontColor=#147EBA;perimeterSpacing=13;shadow=0;dashed=1;" vertex="1" parent="1">
          <mxGeometry x="-220" y="470" width="540" height="650" as="geometry" />
        </mxCell>
        <mxCell id="vC_pauE58aYi4fVgcCe0-27" value="" style="outlineConnect=0;dashed=0;verticalLabelPosition=bottom;verticalAlign=top;align=center;html=1;shape=mxgraph.aws3.vpc;fillColor=#F58534;gradientColor=none;" vertex="1" parent="vC_pauE58aYi4fVgcCe0-26">
          <mxGeometry x="50" y="34" width="67.5" height="81" as="geometry" />
        </mxCell>
        <mxCell id="vC_pauE58aYi4fVgcCe0-28" value="" style="sketch=0;points=[[0,0,0],[0.25,0,0],[0.5,0,0],[0.75,0,0],[1,0,0],[0,1,0],[0.25,1,0],[0.5,1,0],[0.75,1,0],[1,1,0],[0,0.25,0],[0,0.5,0],[0,0.75,0],[1,0.25,0],[1,0.5,0],[1,0.75,0]];outlineConnect=0;fontColor=#232F3E;fillColor=#C925D1;strokeColor=#ffffff;dashed=0;verticalLabelPosition=bottom;verticalAlign=top;align=center;html=1;fontSize=12;fontStyle=0;aspect=fixed;shape=mxgraph.aws4.resourceIcon;resIcon=mxgraph.aws4.rds;" vertex="1" parent="vC_pauE58aYi4fVgcCe0-26">
          <mxGeometry x="220" y="300" width="78" height="78" as="geometry" />
        </mxCell>
        <mxCell id="vC_pauE58aYi4fVgcCe0-32" value="" style="sketch=0;points=[[0,0,0],[0.25,0,0],[0.5,0,0],[0.75,0,0],[1,0,0],[0,1,0],[0.25,1,0],[0.5,1,0],[0.75,1,0],[1,1,0],[0,0.25,0],[0,0.5,0],[0,0.75,0],[1,0.25,0],[1,0.5,0],[1,0.75,0]];outlineConnect=0;fontColor=#232F3E;fillColor=#ED7100;strokeColor=#ffffff;dashed=0;verticalLabelPosition=bottom;verticalAlign=top;align=center;html=1;fontSize=12;fontStyle=0;aspect=fixed;shape=mxgraph.aws4.resourceIcon;resIcon=mxgraph.aws4.auto_scaling2;" vertex="1" parent="vC_pauE58aYi4fVgcCe0-26">
          <mxGeometry x="220" y="180" width="78" height="78" as="geometry" />
        </mxCell>
        <mxCell id="vC_pauE58aYi4fVgcCe0-33" value="EC2 Auto Scaling" style="text;strokeColor=none;align=center;fillColor=none;html=1;verticalAlign=middle;whiteSpace=wrap;rounded=0;" vertex="1" parent="vC_pauE58aYi4fVgcCe0-26">
          <mxGeometry x="204" y="258" width="110" height="30" as="geometry" />
        </mxCell>
        <mxCell id="vC_pauE58aYi4fVgcCe0-34" value="RDS" style="text;strokeColor=none;align=center;fillColor=none;html=1;verticalAlign=middle;whiteSpace=wrap;rounded=0;" vertex="1" parent="vC_pauE58aYi4fVgcCe0-26">
          <mxGeometry x="229" y="378" width="60" height="30" as="geometry" />
        </mxCell>
        <mxCell id="vC_pauE58aYi4fVgcCe0-35" value="VPC" style="text;strokeColor=none;align=center;fillColor=none;html=1;verticalAlign=middle;whiteSpace=wrap;rounded=0;" vertex="1" parent="vC_pauE58aYi4fVgcCe0-26">
          <mxGeometry x="53.75" y="115" width="60" height="30" as="geometry" />
        </mxCell>
        <mxCell id="vC_pauE58aYi4fVgcCe0-45" value="" style="outlineConnect=0;dashed=0;verticalLabelPosition=bottom;verticalAlign=top;align=center;html=1;shape=mxgraph.aws3.application_load_balancer;fillColor=#F58534;gradientColor=none;" vertex="1" parent="vC_pauE58aYi4fVgcCe0-26">
          <mxGeometry x="215.5" y="30" width="69" height="72" as="geometry" />
        </mxCell>
        <mxCell id="vC_pauE58aYi4fVgcCe0-50" value="" style="outlineConnect=0;dashed=0;verticalLabelPosition=bottom;verticalAlign=top;align=center;html=1;shape=mxgraph.aws3.elasticache;fillColor=#2E73B8;gradientColor=none;" vertex="1" parent="vC_pauE58aYi4fVgcCe0-26">
          <mxGeometry x="225.25" y="430" width="67.5" height="81" as="geometry" />
        </mxCell>
        <mxCell id="vC_pauE58aYi4fVgcCe0-77" style="edgeStyle=orthogonalEdgeStyle;rounded=0;orthogonalLoop=1;jettySize=auto;html=1;exitX=0.5;exitY=1;exitDx=0;exitDy=0;exitPerimeter=0;entryX=0.5;entryY=0;entryDx=0;entryDy=0;entryPerimeter=0;" edge="1" parent="vC_pauE58aYi4fVgcCe0-26" source="vC_pauE58aYi4fVgcCe0-48" target="vC_pauE58aYi4fVgcCe0-32">
          <mxGeometry relative="1" as="geometry" />
        </mxCell>
        <mxCell id="vC_pauE58aYi4fVgcCe0-48" value="Application Load Balancer" style="text;html=1;align=center;verticalAlign=middle;resizable=0;points=[];autosize=1;strokeColor=none;fillColor=none;" vertex="1" parent="vC_pauE58aYi4fVgcCe0-26">
          <mxGeometry x="170" y="102" width="160" height="30" as="geometry" />
        </mxCell>
        <mxCell id="vC_pauE58aYi4fVgcCe0-79" value="" style="edgeStyle=orthogonalEdgeStyle;rounded=0;orthogonalLoop=1;jettySize=auto;html=1;exitX=0.5;exitY=1;exitDx=0;exitDy=0;exitPerimeter=0;entryX=0.5;entryY=0;entryDx=0;entryDy=0;entryPerimeter=0;" edge="1" parent="vC_pauE58aYi4fVgcCe0-26" source="vC_pauE58aYi4fVgcCe0-45" target="vC_pauE58aYi4fVgcCe0-48">
          <mxGeometry relative="1" as="geometry">
            <mxPoint x="30" y="542" as="sourcePoint" />
            <mxPoint x="39" y="620" as="targetPoint" />
          </mxGeometry>
        </mxCell>
        <mxCell id="vC_pauE58aYi4fVgcCe0-81" style="edgeStyle=orthogonalEdgeStyle;rounded=0;orthogonalLoop=1;jettySize=auto;html=1;entryX=0.5;entryY=0;entryDx=0;entryDy=0;entryPerimeter=0;" edge="1" parent="vC_pauE58aYi4fVgcCe0-26" source="vC_pauE58aYi4fVgcCe0-32" target="vC_pauE58aYi4fVgcCe0-28">
          <mxGeometry relative="1" as="geometry" />
        </mxCell>
        <mxCell id="vC_pauE58aYi4fVgcCe0-30" value="Amazon S3" style="sketch=0;outlineConnect=0;fontColor=#232F3E;gradientColor=none;strokeColor=#ffffff;fillColor=#232F3E;dashed=0;verticalLabelPosition=middle;verticalAlign=bottom;align=center;html=1;whiteSpace=wrap;fontSize=10;fontStyle=1;spacing=3;shape=mxgraph.aws4.productIcon;prIcon=mxgraph.aws4.s3;" vertex="1" parent="vC_pauE58aYi4fVgcCe0-26">
          <mxGeometry x="219" y="540" width="80" height="100" as="geometry" />
        </mxCell>
        <mxCell id="vC_pauE58aYi4fVgcCe0-114" value="ElastiCache" style="text;html=1;align=center;verticalAlign=middle;resizable=0;points=[];autosize=1;strokeColor=none;fillColor=none;" vertex="1" parent="vC_pauE58aYi4fVgcCe0-26">
          <mxGeometry x="214" y="511" width="90" height="30" as="geometry" />
        </mxCell>
        <mxCell id="vC_pauE58aYi4fVgcCe0-120" style="edgeStyle=orthogonalEdgeStyle;rounded=0;orthogonalLoop=1;jettySize=auto;html=1;exitX=0.5;exitY=1;exitDx=0;exitDy=0;exitPerimeter=0;entryX=0.412;entryY=1.209;entryDx=0;entryDy=0;entryPerimeter=0;" edge="1" parent="vC_pauE58aYi4fVgcCe0-26" source="vC_pauE58aYi4fVgcCe0-50" target="vC_pauE58aYi4fVgcCe0-114">
          <mxGeometry relative="1" as="geometry" />
        </mxCell>
        <mxCell id="vC_pauE58aYi4fVgcCe0-124" style="edgeStyle=orthogonalEdgeStyle;rounded=0;orthogonalLoop=1;jettySize=auto;html=1;entryX=0.5;entryY=0;entryDx=0;entryDy=0;entryPerimeter=0;" edge="1" parent="vC_pauE58aYi4fVgcCe0-26" source="vC_pauE58aYi4fVgcCe0-28" target="vC_pauE58aYi4fVgcCe0-50">
          <mxGeometry relative="1" as="geometry" />
        </mxCell>
        <mxCell id="vC_pauE58aYi4fVgcCe0-29" value="" style="sketch=0;points=[[0,0,0],[0.25,0,0],[0.5,0,0],[0.75,0,0],[1,0,0],[0,1,0],[0.25,1,0],[0.5,1,0],[0.75,1,0],[1,1,0],[0,0.25,0],[0,0.5,0],[0,0.75,0],[1,0.25,0],[1,0.5,0],[1,0.75,0]];outlineConnect=0;fontColor=#232F3E;fillColor=#8C4FFF;strokeColor=#ffffff;dashed=0;verticalLabelPosition=bottom;verticalAlign=top;align=center;html=1;fontSize=12;fontStyle=0;aspect=fixed;shape=mxgraph.aws4.resourceIcon;resIcon=mxgraph.aws4.cloudfront;" vertex="1" parent="1">
          <mxGeometry x="-9" y="290" width="78" height="78" as="geometry" />
        </mxCell>
        <mxCell id="vC_pauE58aYi4fVgcCe0-31" value="&lt;font style=&quot;font-size: 13px;&quot;&gt;CloudFront&lt;/font&gt;" style="text;strokeColor=none;align=center;fillColor=none;html=1;verticalAlign=middle;whiteSpace=wrap;rounded=0;" vertex="1" parent="1">
          <mxGeometry y="368" width="60" height="30" as="geometry" />
        </mxCell>
        <mxCell id="vC_pauE58aYi4fVgcCe0-63" value="" style="sketch=0;points=[[0,0,0],[0.25,0,0],[0.5,0,0],[0.75,0,0],[1,0,0],[0,1,0],[0.25,1,0],[0.5,1,0],[0.75,1,0],[1,1,0],[0,0.25,0],[0,0.5,0],[0,0.75,0],[1,0.25,0],[1,0.5,0],[1,0.75,0]];outlineConnect=0;fontColor=#232F3E;fillColor=#8C4FFF;strokeColor=#ffffff;dashed=0;verticalLabelPosition=bottom;verticalAlign=top;align=center;html=1;fontSize=12;fontStyle=0;aspect=fixed;shape=mxgraph.aws4.resourceIcon;resIcon=mxgraph.aws4.cloudfront;" vertex="1" parent="1">
          <mxGeometry x="601" y="290" width="78" height="78" as="geometry" />
        </mxCell>
        <mxCell id="vC_pauE58aYi4fVgcCe0-64" value="&lt;font style=&quot;font-size: 13px;&quot;&gt;CloudFront&lt;/font&gt;" style="text;strokeColor=none;align=center;fillColor=none;html=1;verticalAlign=middle;whiteSpace=wrap;rounded=0;" vertex="1" parent="1">
          <mxGeometry x="610" y="368" width="60" height="30" as="geometry" />
        </mxCell>
        <mxCell id="vC_pauE58aYi4fVgcCe0-73" style="edgeStyle=orthogonalEdgeStyle;rounded=0;orthogonalLoop=1;jettySize=auto;html=1;exitX=0.5;exitY=1;exitDx=0;exitDy=0;entryX=0.5;entryY=0;entryDx=0;entryDy=0;entryPerimeter=0;dashed=1;dashPattern=12 12;" edge="1" parent="1" source="vC_pauE58aYi4fVgcCe0-31" target="vC_pauE58aYi4fVgcCe0-45">
          <mxGeometry relative="1" as="geometry" />
        </mxCell>
        <mxCell id="vC_pauE58aYi4fVgcCe0-88" value="London&amp;nbsp;Region (eu-west-2)" style="points=[[0,0],[0.25,0],[0.5,0],[0.75,0],[1,0],[1,0.25],[1,0.5],[1,0.75],[1,1],[0.75,1],[0.5,1],[0.25,1],[0,1],[0,0.75],[0,0.5],[0,0.25]];outlineConnect=0;gradientColor=none;html=1;whiteSpace=wrap;fontSize=14;fontStyle=0;container=1;pointerEvents=0;collapsible=0;recursiveResize=0;shape=mxgraph.aws4.group;grIcon=mxgraph.aws4.group_region;strokeColor=#00A4A6;fillColor=none;verticalAlign=top;align=left;spacingLeft=30;fontColor=#147EBA;perimeterSpacing=13;shadow=0;dashed=1;" vertex="1" parent="1">
          <mxGeometry x="390" y="470" width="500" height="650" as="geometry" />
        </mxCell>
        <mxCell id="vC_pauE58aYi4fVgcCe0-89" value="" style="outlineConnect=0;dashed=0;verticalLabelPosition=bottom;verticalAlign=top;align=center;html=1;shape=mxgraph.aws3.vpc;fillColor=#F58534;gradientColor=none;" vertex="1" parent="vC_pauE58aYi4fVgcCe0-88">
          <mxGeometry x="50" y="34" width="67.5" height="81" as="geometry" />
        </mxCell>
        <mxCell id="vC_pauE58aYi4fVgcCe0-117" value="" style="edgeStyle=orthogonalEdgeStyle;rounded=0;orthogonalLoop=1;jettySize=auto;html=1;" edge="1" parent="vC_pauE58aYi4fVgcCe0-88" source="vC_pauE58aYi4fVgcCe0-90" target="vC_pauE58aYi4fVgcCe0-115">
          <mxGeometry relative="1" as="geometry" />
        </mxCell>
        <mxCell id="vC_pauE58aYi4fVgcCe0-90" value="" style="sketch=0;points=[[0,0,0],[0.25,0,0],[0.5,0,0],[0.75,0,0],[1,0,0],[0,1,0],[0.25,1,0],[0.5,1,0],[0.75,1,0],[1,1,0],[0,0.25,0],[0,0.5,0],[0,0.75,0],[1,0.25,0],[1,0.5,0],[1,0.75,0]];outlineConnect=0;fontColor=#232F3E;fillColor=#C925D1;strokeColor=#ffffff;dashed=0;verticalLabelPosition=bottom;verticalAlign=top;align=center;html=1;fontSize=12;fontStyle=0;aspect=fixed;shape=mxgraph.aws4.resourceIcon;resIcon=mxgraph.aws4.rds;" vertex="1" parent="vC_pauE58aYi4fVgcCe0-88">
          <mxGeometry x="220" y="300" width="78" height="78" as="geometry" />
        </mxCell>
        <mxCell id="vC_pauE58aYi4fVgcCe0-91" value="" style="sketch=0;points=[[0,0,0],[0.25,0,0],[0.5,0,0],[0.75,0,0],[1,0,0],[0,1,0],[0.25,1,0],[0.5,1,0],[0.75,1,0],[1,1,0],[0,0.25,0],[0,0.5,0],[0,0.75,0],[1,0.25,0],[1,0.5,0],[1,0.75,0]];outlineConnect=0;fontColor=#232F3E;fillColor=#ED7100;strokeColor=#ffffff;dashed=0;verticalLabelPosition=bottom;verticalAlign=top;align=center;html=1;fontSize=12;fontStyle=0;aspect=fixed;shape=mxgraph.aws4.resourceIcon;resIcon=mxgraph.aws4.auto_scaling2;" vertex="1" parent="vC_pauE58aYi4fVgcCe0-88">
          <mxGeometry x="220" y="180" width="78" height="78" as="geometry" />
        </mxCell>
        <mxCell id="vC_pauE58aYi4fVgcCe0-92" value="EC2 Auto Scaling" style="text;strokeColor=none;align=center;fillColor=none;html=1;verticalAlign=middle;whiteSpace=wrap;rounded=0;" vertex="1" parent="vC_pauE58aYi4fVgcCe0-88">
          <mxGeometry x="205.75" y="258" width="110" height="30" as="geometry" />
        </mxCell>
        <mxCell id="vC_pauE58aYi4fVgcCe0-94" value="RDS" style="text;strokeColor=none;align=center;fillColor=none;html=1;verticalAlign=middle;whiteSpace=wrap;rounded=0;" vertex="1" parent="vC_pauE58aYi4fVgcCe0-88">
          <mxGeometry x="229" y="378" width="60" height="30" as="geometry" />
        </mxCell>
        <mxCell id="vC_pauE58aYi4fVgcCe0-95" value="VPC" style="text;strokeColor=none;align=center;fillColor=none;html=1;verticalAlign=middle;whiteSpace=wrap;rounded=0;" vertex="1" parent="vC_pauE58aYi4fVgcCe0-88">
          <mxGeometry x="53.75" y="115" width="60" height="30" as="geometry" />
        </mxCell>
        <mxCell id="vC_pauE58aYi4fVgcCe0-96" value="" style="outlineConnect=0;dashed=0;verticalLabelPosition=bottom;verticalAlign=top;align=center;html=1;shape=mxgraph.aws3.application_load_balancer;fillColor=#F58534;gradientColor=none;" vertex="1" parent="vC_pauE58aYi4fVgcCe0-88">
          <mxGeometry x="215.5" y="30" width="69" height="72" as="geometry" />
        </mxCell>
        <mxCell id="vC_pauE58aYi4fVgcCe0-98" style="edgeStyle=orthogonalEdgeStyle;rounded=0;orthogonalLoop=1;jettySize=auto;html=1;exitX=0.5;exitY=1;exitDx=0;exitDy=0;exitPerimeter=0;entryX=0.5;entryY=0;entryDx=0;entryDy=0;entryPerimeter=0;" edge="1" parent="vC_pauE58aYi4fVgcCe0-88" source="vC_pauE58aYi4fVgcCe0-99" target="vC_pauE58aYi4fVgcCe0-91">
          <mxGeometry relative="1" as="geometry" />
        </mxCell>
        <mxCell id="vC_pauE58aYi4fVgcCe0-99" value="Application Load Balancer" style="text;html=1;align=center;verticalAlign=middle;resizable=0;points=[];autosize=1;strokeColor=none;fillColor=none;" vertex="1" parent="vC_pauE58aYi4fVgcCe0-88">
          <mxGeometry x="170" y="102" width="160" height="30" as="geometry" />
        </mxCell>
        <mxCell id="vC_pauE58aYi4fVgcCe0-100" value="" style="edgeStyle=orthogonalEdgeStyle;rounded=0;orthogonalLoop=1;jettySize=auto;html=1;exitX=0.5;exitY=1;exitDx=0;exitDy=0;exitPerimeter=0;entryX=0.5;entryY=0;entryDx=0;entryDy=0;entryPerimeter=0;" edge="1" parent="vC_pauE58aYi4fVgcCe0-88" source="vC_pauE58aYi4fVgcCe0-96" target="vC_pauE58aYi4fVgcCe0-99">
          <mxGeometry relative="1" as="geometry">
            <mxPoint x="30" y="542" as="sourcePoint" />
            <mxPoint x="39" y="620" as="targetPoint" />
          </mxGeometry>
        </mxCell>
        <mxCell id="vC_pauE58aYi4fVgcCe0-101" style="edgeStyle=orthogonalEdgeStyle;rounded=0;orthogonalLoop=1;jettySize=auto;html=1;entryX=0.5;entryY=0;entryDx=0;entryDy=0;entryPerimeter=0;" edge="1" parent="vC_pauE58aYi4fVgcCe0-88" source="vC_pauE58aYi4fVgcCe0-91" target="vC_pauE58aYi4fVgcCe0-90">
          <mxGeometry relative="1" as="geometry" />
        </mxCell>
        <mxCell id="vC_pauE58aYi4fVgcCe0-102" value="Amazon S3" style="sketch=0;outlineConnect=0;fontColor=#232F3E;gradientColor=none;strokeColor=#ffffff;fillColor=#232F3E;dashed=0;verticalLabelPosition=middle;verticalAlign=bottom;align=center;html=1;whiteSpace=wrap;fontSize=10;fontStyle=1;spacing=3;shape=mxgraph.aws4.productIcon;prIcon=mxgraph.aws4.s3;" vertex="1" parent="vC_pauE58aYi4fVgcCe0-88">
          <mxGeometry x="215.5" y="540" width="80" height="100" as="geometry" />
        </mxCell>
        <mxCell id="vC_pauE58aYi4fVgcCe0-115" value="" style="outlineConnect=0;dashed=0;verticalLabelPosition=bottom;verticalAlign=top;align=center;html=1;shape=mxgraph.aws3.elasticache;fillColor=#2E73B8;gradientColor=none;" vertex="1" parent="vC_pauE58aYi4fVgcCe0-88">
          <mxGeometry x="217" y="430" width="67.5" height="81" as="geometry" />
        </mxCell>
        <mxCell id="vC_pauE58aYi4fVgcCe0-116" value="ElastiCache" style="text;html=1;align=center;verticalAlign=middle;resizable=0;points=[];autosize=1;strokeColor=none;fillColor=none;" vertex="1" parent="vC_pauE58aYi4fVgcCe0-88">
          <mxGeometry x="205.75" y="510" width="90" height="30" as="geometry" />
        </mxCell>
        <mxCell id="vC_pauE58aYi4fVgcCe0-119" style="edgeStyle=orthogonalEdgeStyle;rounded=0;orthogonalLoop=1;jettySize=auto;html=1;exitX=0.5;exitY=1;exitDx=0;exitDy=0;exitPerimeter=0;entryX=0.505;entryY=1.064;entryDx=0;entryDy=0;entryPerimeter=0;" edge="1" parent="vC_pauE58aYi4fVgcCe0-88" source="vC_pauE58aYi4fVgcCe0-115" target="vC_pauE58aYi4fVgcCe0-116">
          <mxGeometry relative="1" as="geometry" />
        </mxCell>
        <mxCell id="vC_pauE58aYi4fVgcCe0-125" value="&lt;b&gt;Cross-region Replication&lt;/b&gt;" style="text;strokeColor=none;align=center;fillColor=none;html=1;verticalAlign=middle;whiteSpace=wrap;rounded=0;" vertex="1" parent="vC_pauE58aYi4fVgcCe0-88">
          <mxGeometry x="-110" y="590" width="170" height="30" as="geometry" />
        </mxCell>
        <mxCell id="vC_pauE58aYi4fVgcCe0-105" style="edgeStyle=orthogonalEdgeStyle;rounded=0;orthogonalLoop=1;jettySize=auto;html=1;entryX=0.5;entryY=0;entryDx=0;entryDy=0;entryPerimeter=0;dashed=1;dashPattern=12 12;" edge="1" parent="1" source="vC_pauE58aYi4fVgcCe0-64" target="vC_pauE58aYi4fVgcCe0-96">
          <mxGeometry relative="1" as="geometry" />
        </mxCell>
        <mxCell id="vC_pauE58aYi4fVgcCe0-110" style="edgeStyle=orthogonalEdgeStyle;rounded=0;orthogonalLoop=1;jettySize=auto;html=1;dashed=1;dashPattern=12 12;strokeColor=default;" edge="1" parent="1" source="vC_pauE58aYi4fVgcCe0-28" target="vC_pauE58aYi4fVgcCe0-90">
          <mxGeometry relative="1" as="geometry" />
        </mxCell>
        <mxCell id="vC_pauE58aYi4fVgcCe0-121" style="edgeStyle=orthogonalEdgeStyle;rounded=0;orthogonalLoop=1;jettySize=auto;html=1;dashed=1;dashPattern=12 12;" edge="1" parent="1" source="vC_pauE58aYi4fVgcCe0-30" target="vC_pauE58aYi4fVgcCe0-102">
          <mxGeometry relative="1" as="geometry" />
        </mxCell>
        <mxCell id="vC_pauE58aYi4fVgcCe0-126" value="&lt;b&gt;Cross-region Replication&lt;/b&gt;" style="text;align=center;html=1;verticalAlign=middle;whiteSpace=wrap;rounded=0;fontColor=#CC00CC;" vertex="1" parent="1">
          <mxGeometry x="280" y="820" width="170" height="30" as="geometry" />
        </mxCell>
      </root>
    </mxGraphModel>
  </diagram>
</mxfile>
